<?xml version="1.0" encoding="UTF-8" standalone="no"?>
<svg
   xmlns:dc="http://purl.org/dc/elements/1.1/"
   xmlns:cc="http://creativecommons.org/ns#"
   xmlns:rdf="http://www.w3.org/1999/02/22-rdf-syntax-ns#"
   xmlns:svg="http://www.w3.org/2000/svg"
   xmlns="http://www.w3.org/2000/svg"
   viewBox="0 0 1133.8586 377.95334"
   height="377.95334"
   width="1133.8586"
   xml:space="preserve"
   id="svg2"
   version="1.1"><metadata
     id="metadata8"><rdf:RDF><cc:Work
         rdf:about=""><dc:format>image/svg+xml</dc:format><dc:type
           rdf:resource="http://purl.org/dc/dcmitype/StillImage" /></cc:Work></rdf:RDF></metadata><defs
     id="defs6" /><g
     transform="matrix(1.3333333,0,0,-1.3333333,0,377.95333)"
     id="g10"><g
       transform="translate(275.027,118.452)"
       id="g12"><path
         id="path14"
         style="fill:#00a650;fill-opacity:1;fill-rule:nonzero;stroke:none"
         d="m 0,0 c -9.066,3.843 -15.441,12.832 -15.441,23.282 0,10.45 6.375,19.439 15.441,23.281 v 19.009 c -19.253,-4.461 -33.618,-21.68 -33.618,-42.29 0,-20.61 14.365,-37.83 33.618,-42.29 V 0" /></g><g
       transform="translate(293.8,184.253)"
       id="g16"><path
         id="path18"
         style="fill:#1c5084;fill-opacity:1;fill-rule:nonzero;stroke:none"
         d="M 0,0 V -18.912 C 9.529,-22.534 16.33,-31.735 16.33,-42.519 16.33,-53.303 9.529,-62.505 0,-66.127 v -18.911 c 19.705,4.124 34.508,21.589 34.508,42.519 C 34.508,-21.589 19.705,-4.124 0,0" /></g><path
       id="path20"
       style="fill:#00a650;fill-opacity:1;fill-rule:nonzero;stroke:none"
       d="m 401.39,127.561 h 16.484 v 56.692 H 401.39 Z" /><g
       transform="translate(366.768,184.164)"
       id="g22"><path
         id="path24"
         style="fill:#00a650;fill-opacity:1;fill-rule:nonzero;stroke:none"
         d="m 0,0 c -14.659,-1.091 -26.216,-13.321 -26.216,-28.258 0,-14.937 11.557,-27.167 26.216,-28.257 V 0" /></g><g
       transform="translate(371.028,184.164)"
       id="g26"><path
         id="path28"
         style="fill:#00a650;fill-opacity:1;fill-rule:nonzero;stroke:none"
         d="m 0,0 v -56.515 c 14.659,1.09 26.216,13.32 26.216,28.257 C 26.216,-13.321 14.659,-1.091 0,0" /></g><g
       transform="translate(435.02,158.482)"
       id="g30"><path
         id="path32"
         style="fill:#00a650;fill-opacity:1;fill-rule:nonzero;stroke:none"
         d="M 0,0 C 5.868,1.227 10.349,6.529 10.349,12.883 10.349,19.245 5.879,24.552 0,25.771 H -12.885 V 0 H 0" /></g><g
       transform="translate(422.135,155.914)"
       id="g34"><path
         id="path36"
         style="fill:#00a650;fill-opacity:1;fill-rule:evenodd;stroke:none"
         d="M 0,0 V -28.353 H 23.188 L 0,0" /></g><g
       transform="translate(502.126,184.253)"
       id="g38"><path
         id="path40"
         style="fill:#00a650;fill-opacity:1;fill-rule:evenodd;stroke:none"
         d="M 0,0 H -15.448 L 0,-20.608 Z m -18.028,0 h -16.487 v -56.692 h 16.487 z m -19.053,0 h -15.46 V -20.608 L -37.081,0" /></g><g
       transform="translate(546.06,145.602)"
       id="g42"><path
         id="path44"
         style="fill:#00a650;fill-opacity:1;fill-rule:evenodd;stroke:none"
         d="M 0,0 -20.606,-18.041 H 0 Z M -10.296,20.611 -20.606,10.312 -10.296,0 Z M 0,38.651 H -20.606 L 0,20.611 Z m -23.176,0 h -16.497 v -56.692 h 16.497 z" /></g><g
       transform="translate(578.659,184.253)"
       id="g46"><path
         id="path48"
         style="fill:#00a650;fill-opacity:1;fill-rule:evenodd;stroke:none"
         d="M 0,0 -11.595,-23.189 5.151,-56.692 H 28.325 Z M -14.176,-28.339 -28.335,-56.692 H 0 l -14.176,28.353" /></g><g
       transform="translate(345.974,108.238)"
       id="g50"><path
         id="path52"
         style="fill:#1c5084;fill-opacity:1;fill-rule:nonzero;stroke:none"
         d="M 0,0 C 1.755,0 2.736,1.254 2.736,2.85 2.736,4.492 1.755,5.585 0,5.585 H -3.714 V 0 Z m 0.389,-7.269 c 1.663,0 2.872,1.253 2.872,2.893 0,1.62 -1.482,2.805 -3.261,2.805 H -3.759 V -7.269 Z M -5.423,6.726 c 0,0.227 0.182,0.432 0.432,0.432 H 0 c 2.781,0 4.673,-1.801 4.673,-4.193 0,-1.756 -1.162,-3.033 -2.234,-3.648 1.209,-0.502 2.736,-1.618 2.736,-3.714 0,-2.554 -2.029,-4.399 -4.97,-4.399 h -5.196 c -0.25,0 -0.432,0.205 -0.432,0.433 V 6.726" /></g><g
       transform="translate(366.537,107.121)"
       id="g54"><path
         id="path56"
         style="fill:#1c5084;fill-opacity:1;fill-rule:nonzero;stroke:none"
         d="m 0,0 -5.494,7.615 c -0.181,0.296 0,0.66 0.366,0.66 h 1.072 c 0.158,0 0.295,-0.114 0.363,-0.205 L 0.912,1.711 5.516,8.07 c 0.069,0.091 0.205,0.205 0.365,0.205 h 1.071 c 0.364,0 0.546,-0.364 0.364,-0.66 L 1.755,0.024 v -7.27 c 0,-0.228 -0.205,-0.433 -0.433,-0.433 H 0.433 C 0.183,-7.679 0,-7.474 0,-7.246 V 0" /></g><g
       transform="translate(405.108,102.861)"
       id="g58"><path
         id="path60"
         style="fill:#1c5084;fill-opacity:1;fill-rule:nonzero;stroke:none"
         d="M 0,0 C 2.507,0 4.557,2.05 4.557,4.534 4.557,7.041 2.507,9.118 0,9.118 -2.486,9.118 -4.537,7.041 -4.537,4.534 -4.537,2.05 -2.486,0 0,0 Z m 0,12.763 c 4.557,0 8.205,-3.669 8.205,-8.229 0,-4.558 -3.648,-8.182 -8.205,-8.182 -4.56,0 -8.182,3.624 -8.182,8.182 0,4.56 3.622,8.229 8.182,8.229" /></g><g
       transform="translate(431.618,108.58)"
       id="g62"><path
         id="path64"
         style="fill:#1c5084;fill-opacity:1;fill-rule:nonzero;stroke:none"
         d="M 0,0 C 0.934,0 1.733,0.867 1.733,1.824 1.733,2.781 0.934,3.557 0,3.557 H -3.374 V 0 Z m -6.952,6.384 c 0,0.227 0.182,0.432 0.434,0.432 h 6.813 c 2.736,0 4.97,-2.211 4.97,-4.923 0,-2.098 -1.391,-3.782 -3.374,-4.581 l 3.124,-5.79 c 0.158,-0.295 0,-0.66 -0.389,-0.66 h -3.03 c -0.184,0 -0.32,0.113 -0.365,0.205 l -3.031,6.04 h -1.574 v -5.812 c 0,-0.228 -0.205,-0.433 -0.432,-0.433 h -2.712 c -0.252,0 -0.434,0.205 -0.434,0.433 V 6.384" /></g><g
       transform="translate(450.584,112.047)"
       id="g66"><path
         id="path68"
         style="fill:#1c5084;fill-opacity:1;fill-rule:nonzero;stroke:none"
         d="m 0,0 h -3.26 c -0.25,0 -0.433,0.205 -0.433,0.431 v 2.486 c 0,0.227 0.183,0.432 0.433,0.432 H 6.859 c 0.252,0 0.434,-0.205 0.434,-0.432 V 0.431 C 7.293,0.205 7.111,0 6.859,0 H 3.601 v -12.172 c 0,-0.228 -0.206,-0.433 -0.432,-0.433 H 0.434 C 0.205,-12.605 0,-12.4 0,-12.172 V 0" /></g><g
       transform="translate(468.754,114.964)"
       id="g70"><path
         id="path72"
         style="fill:#1c5084;fill-opacity:1;fill-rule:nonzero;stroke:none"
         d="m 0,0 c 0,0.227 0.182,0.432 0.433,0.432 h 9.436 c 0.25,0 0.432,-0.205 0.432,-0.432 v -2.486 c 0,-0.226 -0.182,-0.431 -0.432,-0.431 H 3.556 v -2.828 h 5.196 c 0.226,0 0.433,-0.205 0.433,-0.434 v -2.483 c 0,-0.25 -0.207,-0.434 -0.433,-0.434 H 3.556 v -3.076 h 6.313 c 0.25,0 0.432,-0.205 0.432,-0.433 v -2.484 c 0,-0.228 -0.182,-0.433 -0.432,-0.433 H 0.433 C 0.182,-15.522 0,-15.317 0,-15.089 V 0" /></g><g
       transform="translate(498.02,104.911)"
       id="g74"><path
         id="path76"
         style="fill:#1c5084;fill-opacity:1;fill-rule:nonzero;stroke:none"
         d="M 0,0 -1.732,3.761 H -1.753 L -3.464,0 Z m -9.368,-4.878 7.136,15.341 c 0.068,0.137 0.227,0.25 0.387,0.25 h 0.228 c 0.158,0 0.319,-0.113 0.387,-0.25 L 5.903,-4.878 C 6.04,-5.173 5.858,-5.469 5.517,-5.469 H 2.986 c -0.41,0 -0.592,0.136 -0.797,0.57 l -0.82,1.8 h -6.2 l -0.82,-1.824 c -0.115,-0.273 -0.365,-0.546 -0.82,-0.546 h -2.508 c -0.342,0 -0.525,0.296 -0.389,0.591" /></g><g
       transform="translate(528.388,115.214)"
       id="g78"><path
         id="path80"
         style="fill:#1c5084;fill-opacity:1;fill-rule:nonzero;stroke:none"
         d="M 0,0 C 0,0.229 0.205,0.41 0.431,0.41 H 1.002 L 11.281,-12.4 c 0.023,0 0.023,0 0.045,0 v 12.15 c 0,0.227 0.183,0.432 0.433,0.432 h 0.798 c 0.227,0 0.432,-0.205 0.432,-0.432 v -15.341 c 0,-0.226 -0.205,-0.41 -0.432,-0.41 H 12.148 L 1.685,-2.94 H 1.664 v -12.399 c 0,-0.228 -0.184,-0.433 -0.434,-0.433 H 0.431 C 0.205,-15.772 0,-15.567 0,-15.339 V 0" /></g><g
       transform="translate(554.625,114.964)"
       id="g82"><path
         id="path84"
         style="fill:#1c5084;fill-opacity:1;fill-rule:nonzero;stroke:none"
         d="m 0,0 c 0,0.227 0.182,0.432 0.432,0.432 h 8.98 C 9.662,0.432 9.846,0.227 9.846,0 v -0.662 c 0,-0.229 -0.184,-0.434 -0.434,-0.434 H 1.754 v -5.561 h 6.541 c 0.228,0 0.433,-0.205 0.433,-0.432 V -7.751 C 8.728,-8 8.523,-8.184 8.295,-8.184 H 1.754 v -5.811 h 7.658 c 0.25,0 0.434,-0.205 0.434,-0.434 v -0.66 c 0,-0.228 -0.184,-0.433 -0.434,-0.433 H 0.432 C 0.182,-15.522 0,-15.317 0,-15.089 V 0" /></g><g
       transform="translate(579.925,107.623)"
       id="g86"><path
         id="path88"
         style="fill:#1c5084;fill-opacity:1;fill-rule:nonzero;stroke:none"
         d="m 0,0 -4.445,7.134 c -0.181,0.297 0,0.639 0.389,0.639 h 1.231 c 0.16,0 0.318,-0.09 0.385,-0.205 l 3.512,-6.04 h 0.023 l 3.554,6.04 c 0.069,0.115 0.205,0.205 0.389,0.205 h 1.23 c 0.387,0 0.571,-0.342 0.387,-0.639 L 2.211,0 6.815,-7.543 c 0.184,-0.32 0,-0.638 -0.387,-0.638 H 5.38 c -0.184,0 -0.342,0.113 -0.389,0.205 l -3.896,6.45 H 1.072 l -3.853,-6.45 C -2.849,-8.09 -2.986,-8.181 -3.167,-8.181 h -1.049 c -0.41,0 -0.592,0.341 -0.41,0.638 L 0,0" /></g><g
       transform="translate(600.852,113.868)"
       id="g90"><path
         id="path92"
         style="fill:#1c5084;fill-opacity:1;fill-rule:nonzero;stroke:none"
         d="m 0,0 h -3.965 c -0.25,0 -0.434,0.205 -0.434,0.434 v 0.662 c 0,0.227 0.184,0.432 0.434,0.432 h 9.664 c 0.25,0 0.433,-0.205 0.433,-0.432 V 0.434 C 6.132,0.205 5.949,0 5.699,0 H 1.733 v -13.993 c 0,-0.228 -0.205,-0.433 -0.434,-0.433 H 0.434 C 0.206,-14.426 0,-14.221 0,-13.993 V 0" /></g></g></svg>